<svg xmlns="http://www.w3.org/2000/svg" width="36" height="24" viewBox="0 0 36 24"><g transform="translate(880 -2509)"><g transform="translate(-880 2509)"><rect width="36" height="24" rx="4" fill="#00a0d9"/><path d="M67.059,71.215c-.41.4-1.559.515-1.442-.444.1-.8.964-.965,1.9-.85A2.364,2.364,0,0,1,67.059,71.215ZM65.765,68.11c-.039.22-.1.418-.148.628.469-.118,1.93-.478,2.07.148a1.1,1.1,0,0,1-.092.592c-1.321-.125-2.4.094-2.68,1.035a1.168,1.168,0,0,0,.425,1.423,1.768,1.768,0,0,0,2.052-.573,2.415,2.415,0,0,0-.055.591h.684a10.608,10.608,0,0,1,.2-1.775,7.007,7.007,0,0,0,.222-1.442C68.386,67.724,66.706,68.083,65.765,68.11Zm6.858,3.42c-.535.011-.8-.32-.813-.869-.021-.962.4-2.03,1.257-2.126a2.085,2.085,0,0,1,.98.148C73.778,69.763,73.875,71.5,72.623,71.53ZM74.4,66.447c-.068.6-.159,1.172-.277,1.719-1.95-.617-3.145.817-3.124,2.588a1.392,1.392,0,0,0,.277.924,1.8,1.8,0,0,0,1.959.166,1.38,1.38,0,0,0,.277-.277c.051-.065.133-.234.148-.185a4.14,4.14,0,0,0-.074.573H74.3a50.348,50.348,0,0,1,.887-5.508ZM54.046,71.234c-.425.45-1.471.443-1.553-.314a3.766,3.766,0,0,1,.148-1.017c.061-.345.106-.677.166-.98.419-.511,1.65-.573,1.775.277A2.82,2.82,0,0,1,54.046,71.234Zm.629-3.124a2.1,2.1,0,0,0-1.848.336c0,.013-.008.014-.019.015l.019-.015v0c.006-.123.049-.209.055-.333H52.2c-.285,1.9-.623,3.739-.98,5.564h.795c.115-.711.191-1.46.351-2.126.182.7,1.367.566,1.867.3C55.263,71.286,56.059,68.63,54.674,68.11Zm3.771,1.331H56.578a1.1,1.1,0,0,1,1.054-.924C58.2,68.495,58.614,68.727,58.445,69.441Zm-.758-1.4a2.075,2.075,0,0,0-1.4.573,3.211,3.211,0,0,0-.665,2.329c.143,1.281,1.738,1.235,3.013.924.022-.225.076-.417.111-.628a2.535,2.535,0,0,1-1.978.129c-.408-.258-.41-.911-.277-1.479.857-.027,1.748-.022,2.606,0a2.733,2.733,0,0,0,.074-1.238C58.986,68.122,58.343,67.986,57.687,68.036ZM50.7,68.11c-.022,0-.02.029-.019.055-.175,1.31-.412,2.558-.665,3.789h.795c.191-1.319.41-2.609.684-3.845Zm20.739.018a1.214,1.214,0,0,0-1.516.591c.065-.181.069-.424.129-.61h-.7q-.284,1.98-.684,3.845h.813a8.7,8.7,0,0,1,.185-1.386c.17-1.067.42-2.237,1.664-1.885C71.37,68.5,71.387,68.3,71.44,68.129Zm-8.928,2.921a1.935,1.935,0,0,1-.074-.739,2.585,2.585,0,0,1,.536-1.479,1.948,1.948,0,0,1,1.885-.111c.02-.22.064-.416.092-.628a3,3,0,0,0-2.625.5,3.157,3.157,0,0,0-.629,2.625c.286.936,1.568.987,2.606.629.046-.188.07-.4.111-.592C63.848,71.547,62.764,71.7,62.512,71.049Zm-.444-2.939a1.22,1.22,0,0,0-1.516.647c.058-.2.082-.435.129-.647h-.7c-.172,1.332-.425,2.582-.665,3.845h.795a15.113,15.113,0,0,1,.407-2.477,1.109,1.109,0,0,1,1.46-.795C61.986,68.472,62.047,68.31,62.068,68.11Zm-12.81-1.553c-.114.737-.241,1.459-.37,2.181-.823.009-1.664.041-2.458-.019.15-.706.258-1.455.407-2.163H45.95c-.318,1.8-.607,3.633-.961,5.4h.906c.142-.905.275-1.82.462-2.68a22.08,22.08,0,0,1,2.44.019c-.153.894-.338,1.757-.481,2.662h.906c.291-1.829.6-3.641.961-5.4Zm2.255.813c.158-.109.363-.606.129-.813a.44.44,0,0,0-.37-.055.447.447,0,0,0-.314.166c-.1.137-.192.549-.037.7s.491.069.592,0Z" transform="translate(-41.989 -57.977)" fill="#00a0d9"/></g><g transform="translate(-880 2509)"><g transform="translate(0 5.527)"><path d="M249.14,1546.394v-5.56h5.887l.632.823.652-.823h21.367v5.176a2.466,2.466,0,0,1-1.205.384H264.641l-.712-.876v.876H261.6v-1.5a1.957,1.957,0,0,1-1.008.209h-.794v1.287h-3.533l-.631-.841-.64.841Z" transform="translate(-242.266 -1533.55)" fill="#fff"/><path d="M55.5,1338.717l1.327-3.095h2.3l.753,1.734v-1.734H62.73l.448,1.253.435-1.253h12.81v.63a2.763,2.763,0,0,1,1.78-.63l4.157.015.74,1.711v-1.725h2.388l.657.983v-.983h2.41v5.56h-2.41l-.63-.986v.986H82.008l-.353-.876h-.943l-.347.876h-2.38a2.352,2.352,0,0,1-1.561-.617v.617H72.836l-.712-.876v.876H58.783l-.353-.876h-.94l-.35.876H55.5Z" transform="translate(-55.5 -1335.622)" fill="#fff"/><path d="M57.483,1354.929l-1.79,4.163h1.166l.33-.834h1.921l.329.834h1.191l-1.789-4.163Zm.662.969.585,1.457H57.559Z" transform="translate(-55.686 -1354.244)" fill="#00a0d9"/><path d="M198.223,1359.072v-4.163l1.656.006.963,2.684.94-2.69h1.643v4.163h-1.041v-3.067l-1.1,3.067h-.913l-1.106-3.067v3.067Z" transform="translate(-193.156 -1354.225)" fill="#00a0d9"/><path d="M364.861,1359.072v-4.163h3.4v.931h-2.344v.712h2.29v.876h-2.29v.74h2.344v.9Z" transform="translate(-353.879 -1354.225)" fill="#00a0d9"/><path d="M477.5,1354.929v4.163h1.041v-1.479h.438l1.248,1.479H481.5l-1.369-1.534a1.268,1.268,0,0,0,1.142-1.279,1.347,1.347,0,0,0-1.455-1.351Zm1.041.931h1.19a.478.478,0,0,1,.493.438.47.47,0,0,1-.478.438h-1.205Z" transform="translate(-462.516 -1354.244)" fill="#00a0d9"/><path d="M596.749,1359.072h-1.063v-4.163h1.063Z" transform="translate(-576.51 -1354.225)" fill="#00a0d9"/><path d="M641.905,1359.072h-.229a1.834,1.834,0,0,1-1.784-2.064,1.907,1.907,0,0,1,2.068-2.1h1.15v.986h-1.192a1,1,0,0,0-.971,1.123,1.019,1.019,0,0,0,1.123,1.145h.274Z" transform="translate(-619.146 -1354.225)" fill="#00a0d9"/><path d="M711.742,1354.929l-1.79,4.163h1.166l.33-.834h1.921l.329.834h1.191l-1.789-4.163Zm.662.969.585,1.457h-1.172Z" transform="translate(-686.719 -1354.244)" fill="#00a0d9"/><path d="M852.433,1359.072v-4.163h1.323l1.689,2.615v-2.615h1.041v4.163h-1.28l-1.732-2.684v2.684Z" transform="translate(-824.142 -1354.225)" fill="#00a0d9"/><path d="M269.2,1564.285v-4.163h3.4v.931H270.25v.712h2.29v.876h-2.29v.74h2.344v.9Z" transform="translate(-261.612 -1552.152)" fill="#00a0d9"/><path d="M737.947,1564.285v-4.163h3.4v.931H739v.712h2.279v.876H739v.74h2.344v.9Z" transform="translate(-713.72 -1552.152)" fill="#00a0d9"/><path d="M367.5,1564.284l1.653-2.056-1.693-2.107h1.311l1.008,1.3,1.012-1.3h1.26l-1.671,2.081,1.657,2.081h-1.311l-.979-1.282-.955,1.282Z" transform="translate(-356.39 -1552.152)" fill="#00a0d9"/><path d="M499.869,1560.141v4.163h1.068v-1.315h1.1a1.44,1.44,0,0,0,1.63-1.448,1.37,1.37,0,0,0-1.494-1.4Zm1.068.941h1.154a.47.47,0,0,1,.514.479.48.48,0,0,1-.517.479h-1.15Z" transform="translate(-484.094 -1552.171)" fill="#00a0d9"/><path d="M619.448,1560.122v4.163h1.041v-1.479h.438l1.248,1.479h1.272l-1.369-1.534a1.268,1.268,0,0,0,1.142-1.279,1.347,1.347,0,0,0-1.455-1.35Zm1.041.931h1.19a.478.478,0,0,1,.493.438.47.47,0,0,1-.478.438h-1.205Z" transform="translate(-599.428 -1552.152)" fill="#00a0d9"/><path d="M843.6,1564.284v-.9h2.083c.308,0,.442-.167.442-.349s-.133-.352-.442-.352h-.941a1.164,1.164,0,0,1-1.274-1.247c0-.667.417-1.311,1.633-1.311h2.027l-.438.937h-1.753c-.335,0-.438.176-.438.344a.363.363,0,0,0,.383.363h.986a1.142,1.142,0,0,1,1.308,1.195,1.248,1.248,0,0,1-1.357,1.325Z" transform="translate(-815.492 -1552.152)" fill="#00a0d9"/><path d="M951.194,1564.284v-.9h2.083c.308,0,.442-.167.442-.349s-.133-.352-.442-.352h-.941a1.164,1.164,0,0,1-1.274-1.247c0-.667.417-1.311,1.633-1.311h2.027l-.438.937H952.53c-.335,0-.438.176-.438.344a.363.363,0,0,0,.383.363h.986a1.142,1.142,0,0,1,1.308,1.195,1.248,1.248,0,0,1-1.357,1.325Z" transform="translate(-919.269 -1552.152)" fill="#00a0d9"/></g></g></g></svg>