<svg xmlns="http://www.w3.org/2000/svg" width="36" height="24" viewBox="0 0 36 24"><rect width="36" height="24" rx="4" fill="#ccedff"/><g transform="translate(8.659 4.569)"><path d="M10.742,14.95a7.647,7.647,0,0,0,7.594-7.41A7.518,7.518,0,0,0,10.742,0H7.325A7.27,7.27,0,0,0,0,7.54a7.382,7.382,0,0,0,7.325,7.41Z" transform="translate(0 0)" fill="#0079be"/><path d="M30.718,20.83a6.865,6.865,0,1,0,6.649,6.862A6.758,6.758,0,0,0,30.718,20.83ZM26.5,27.692h0a4.354,4.354,0,0,1,2.705-4.059V31.75A4.352,4.352,0,0,1,26.5,27.692Zm5.722,4.06h0V23.633a4.4,4.4,0,0,1,0,8.119Z" transform="translate(-23.377 -20.23)" fill="#fff"/><path d="M30.718,20.83a6.865,6.865,0,1,0,6.649,6.862A6.758,6.758,0,0,0,30.718,20.83ZM26.5,27.692h0a4.354,4.354,0,0,1,2.705-4.059V31.75A4.352,4.352,0,0,1,26.5,27.692Zm5.722,4.06h0V23.633a4.4,4.4,0,0,1,0,8.119Z" transform="translate(-23.377 -20.23)" fill="#fff"/></g></svg>