<svg xmlns="http://www.w3.org/2000/svg" width="36" height="24" viewBox="0 0 36 24"><rect width="36" height="24" rx="4" fill="#2e404d"/><g transform="translate(4.119 6.688)"><g transform="translate(3.587)"><path d="M-3.932-13.32a3.083,3.083,0,0,1,.98-.158A3.09,3.09,0,0,1,.075-11.006l2.118-.433a5.252,5.252,0,0,0-5.145-4.2,5.235,5.235,0,0,0-1.665.27Z" transform="translate(4.617 15.64)" fill="#fbc707"/></g><g transform="translate(0 1.319)"><path d="M-10.176-45.161l1.432-1.619a3.082,3.082,0,0,1-1.042-2.314,3.081,3.081,0,0,1,1.042-2.313l-1.433-1.62a5.238,5.238,0,0,0-1.771,3.932,5.239,5.239,0,0,0,1.772,3.933" transform="translate(11.948 53.027)" fill="#38a7e4"/></g><g transform="translate(3.585 5.871)"><path d="M-26.946,0a3.088,3.088,0,0,1-3.026,2.469,3.069,3.069,0,0,1-.981-.159l-.686,2.051a5.242,5.242,0,0,0,1.667.269,5.252,5.252,0,0,0,5.145-4.2Z" transform="translate(31.639)" fill="#ef3120"/></g><g transform="translate(11.761 2.759)"><path d="M-27.1-24.316l0,0-.061-.041a1.7,1.7,0,0,1-.785.657,1.526,1.526,0,0,1-1.685-.169l-.04.06h0l-.738,1.1a3.174,3.174,0,0,0,.586.321,3.056,3.056,0,0,0,2.47-.035,3.038,3.038,0,0,0,1.379-1.147Zm-2.3-2.722a1.6,1.6,0,0,0-.967,1.694l2.907-1.251a1.543,1.543,0,0,0-1.94-.442m-1.93,3.361a3.721,3.721,0,0,1-.221-.425,3.117,3.117,0,0,1-.068-2.358,3.112,3.112,0,0,1,1.675-1.829,3.225,3.225,0,0,1,2.962.216,3.166,3.166,0,0,1,1.322,1.6c.041.094.076.2.11.281Z" transform="translate(31.822 28.55)" fill="#fff"/></g><g transform="translate(18.687 1.397)"><path d="M-7.827,0V6.135l.954.386-.542,1.264-1.053-.437a1.2,1.2,0,0,1-.519-.436,1.375,1.375,0,0,1-.2-.76V0Z" transform="translate(9.191)" fill="#fff"/></g><g transform="translate(21.056 3.568)"><path d="M-8.408-13.779a1.737,1.737,0,0,1,.6-1.309l-.979-1.091a3.2,3.2,0,0,0-1.082,2.4,3.193,3.193,0,0,0,1.08,2.4l.977-1.092a1.738,1.738,0,0,1-.592-1.308" transform="translate(9.872 16.179)" fill="#fff"/></g><g transform="translate(23.24 6.323)"><path d="M-5.848-7.961a1.754,1.754,0,0,1-.551-.09l-.467,1.39A3.205,3.205,0,0,0-5.849-6.5,3.207,3.207,0,0,0-2.707-9.055l-1.436-.293A1.74,1.74,0,0,1-5.848-7.961" transform="translate(6.867 9.348)" fill="#fff"/></g><g transform="translate(23.247 2.765)"><path d="M-5.836,0A3.2,3.2,0,0,0-6.852.164l.464,1.391a1.76,1.76,0,0,1,.552-.089,1.739,1.739,0,0,1,1.7,1.394L-2.7,2.567A3.205,3.205,0,0,0-5.836,0" transform="translate(6.852 0)" fill="#fff"/></g></g></svg>