<svg xmlns="http://www.w3.org/2000/svg" width="90" height="24" viewBox="0 0 183 24"><g transform="translate(1076 -2509)"><g transform="translate(-1076 2509)"><rect width="36" height="24" rx="4" fill="#1352b8"/><g transform="translate(5 7.612)"><path d="M55.291,60.21H53.2l1.306-8.023H56.6Z" transform="translate(-44.194 -52.043)" fill="#f7f9fa"/><path d="M18.478,52.187l-1.992,5.518-.235-1.188h0l-.7-3.608a.894.894,0,0,0-.991-.723H11.265l-.038.136a7.8,7.8,0,0,1,2.185.917l1.815,6.97H17.4l3.323-8.023Z" transform="translate(-11.227 -52.043)" fill="#f7f9fa"/><path d="M101.394,60.21h1.918l-1.672-8.023H99.96a.96.96,0,0,0-.964.6L95.881,60.21h2.177l.436-1.192h2.655Zm-2.3-2.838,1.1-3,.617,3Z" transform="translate(-77.713 -52.043)" fill="#f7f9fa"/><path d="M74.879,53.591l.3-1.723a6.029,6.029,0,0,0-1.879-.35c-1.037,0-3.5.453-3.5,2.656,0,2.073,2.889,2.1,2.889,3.187s-2.591.894-3.446.207l-.311,1.8a5.851,5.851,0,0,0,2.358.453c1.425,0,3.576-.738,3.576-2.747,0-2.086-2.915-2.28-2.915-3.187S73.985,53.1,74.879,53.591Z" transform="translate(-56.548 -51.518)" fill="#f7f9fa"/><path d="M16.251,56.517l-.7-3.608a.894.894,0,0,0-.991-.723H11.265l-.038.136a8.1,8.1,0,0,1,3.1,1.557A6.258,6.258,0,0,1,16.251,56.517Z" transform="translate(-11.227 -52.043)" fill="#fc9220"/></g></g><g transform="translate(-1027 2509)"><rect width="36" height="24" rx="4" fill="#fff"/><g transform="translate(5.592 2.967)"><path d="M24.393,94.691V93.424a.752.752,0,0,0-.794-.8.782.782,0,0,0-.71.359.742.742,0,0,0-.668-.359.668.668,0,0,0-.592.3v-.249H21.19v2.02h.444V93.58a.473.473,0,0,1,.494-.537c.292,0,.439.19.439.532V94.7h.444V93.58a.475.475,0,0,1,.494-.537c.3,0,.444.19.444.532V94.7Zm6.565-2.02h-.723v-.613h-.444v.613h-.4v.4h.41V94c0,.469.182.748.7.748a1.031,1.031,0,0,0,.549-.156l-.127-.376a.811.811,0,0,1-.389.114c-.211,0-.292-.135-.292-.338v-.921h.718Zm3.748-.051a.6.6,0,0,0-.532.3v-.245h-.435v2.02h.439V93.559c0-.334.144-.52.423-.52a.716.716,0,0,1,.275.051l.135-.423a.94.94,0,0,0-.313-.055Zm-5.667.211a1.511,1.511,0,0,0-.824-.211c-.511,0-.845.245-.845.647,0,.33.245.532.7.6l.211.03c.241.034.355.1.355.211,0,.156-.161.245-.461.245a1.075,1.075,0,0,1-.672-.211l-.211.342a1.458,1.458,0,0,0,.875.262c.583,0,.921-.275.921-.659s-.266-.541-.706-.6l-.211-.03c-.19-.025-.342-.063-.342-.2s.144-.237.385-.237a1.3,1.3,0,0,1,.634.173Zm11.771-.211a.6.6,0,0,0-.532.3v-.245h-.435v2.02h.439V93.559c0-.334.144-.52.423-.52a.716.716,0,0,1,.275.051l.135-.423a.94.94,0,0,0-.313-.055Zm-5.663,1.056a1.021,1.021,0,0,0,1.078,1.056,1.057,1.057,0,0,0,.727-.241l-.211-.355a.887.887,0,0,1-.528.182.649.649,0,0,1,0-1.293.887.887,0,0,1,.528.182l.211-.355a1.056,1.056,0,0,0-.727-.241,1.021,1.021,0,0,0-1.078,1.056Zm4.116,0V92.671h-.439v.245a.767.767,0,0,0-.634-.3,1.056,1.056,0,0,0,0,2.113.767.767,0,0,0,.634-.3v.245h.439Zm-1.635,0a.606.606,0,1,1,.165.457A.611.611,0,0,1,37.628,93.677Zm-5.3-1.056a1.057,1.057,0,0,0,.03,2.113,1.228,1.228,0,0,0,.839-.275l-.211-.325a.961.961,0,0,1-.587.211.56.56,0,0,1-.6-.494h1.5v-.169a.96.96,0,0,0-.959-1.056Zm0,.393a.5.5,0,0,1,.511.49H31.78a.52.52,0,0,1,.537-.49Zm11.01.668V91.86h-.423v1.056a.767.767,0,0,0-.634-.3,1.056,1.056,0,0,0,0,2.113.767.767,0,0,0,.634-.3v.245h.423Zm-1.625,0a.606.606,0,1,1,.165.457A.611.611,0,0,1,41.711,93.681Zm-14.839,0v-1.01h-.439v.245a.767.767,0,0,0-.634-.3,1.056,1.056,0,1,0,0,2.113.767.767,0,0,0,.634-.3v.245h.439Zm-1.635,0a.6.6,0,1,1,.162.459.611.611,0,0,1-.162-.459Z" transform="translate(-19.915 -76.652)" fill="#231f20"/><rect width="6.656" height="10.961" transform="translate(8.979 1.627)" fill="#ff5f00"/><path d="M24.557,22.262a6.935,6.935,0,0,1,2.905-5.588,8,8,0,0,0-10.288.766,6.768,6.768,0,0,0,0,9.643,8,8,0,0,0,10.288.766A6.935,6.935,0,0,1,24.557,22.262Z" transform="translate(-15.155 -15.154)" fill="#eb001b"/><path d="M85.708,22.259a7.081,7.081,0,0,1-4.282,6.392,8.047,8.047,0,0,1-8.025-.805,6.824,6.824,0,0,0,0-11.175,8.047,8.047,0,0,1,8.025-.805,7.081,7.081,0,0,1,4.282,6.392Z" transform="translate(-61.093 -15.151)" fill="#f79e1b"/></g></g><g transform="translate(-978 2509)"><rect width="36" height="24" rx="4" fill="#2e404d"/><g transform="translate(4.119 6.688)"><g transform="translate(3.587)"><path d="M-3.932-13.32a3.083,3.083,0,0,1,.98-.158A3.09,3.09,0,0,1,.075-11.006l2.118-.433a5.252,5.252,0,0,0-5.145-4.2,5.235,5.235,0,0,0-1.665.27Z" transform="translate(4.617 15.64)" fill="#fbc707"/></g><g transform="translate(0 1.319)"><path d="M-10.176-45.161l1.432-1.619a3.082,3.082,0,0,1-1.042-2.314,3.081,3.081,0,0,1,1.042-2.313l-1.433-1.62a5.238,5.238,0,0,0-1.771,3.932,5.239,5.239,0,0,0,1.772,3.933" transform="translate(11.948 53.027)" fill="#38a7e4"/></g><g transform="translate(3.585 5.871)"><path d="M-26.946,0a3.088,3.088,0,0,1-3.026,2.469,3.069,3.069,0,0,1-.981-.159l-.686,2.051a5.242,5.242,0,0,0,1.667.269,5.252,5.252,0,0,0,5.145-4.2Z" transform="translate(31.639)" fill="#ef3120"/></g><g transform="translate(11.761 2.759)"><path d="M-27.1-24.316l0,0-.061-.041a1.7,1.7,0,0,1-.785.657,1.526,1.526,0,0,1-1.685-.169l-.04.06h0l-.738,1.1a3.174,3.174,0,0,0,.586.321,3.056,3.056,0,0,0,2.47-.035,3.038,3.038,0,0,0,1.379-1.147Zm-2.3-2.722a1.6,1.6,0,0,0-.967,1.694l2.907-1.251a1.543,1.543,0,0,0-1.94-.442m-1.93,3.361a3.721,3.721,0,0,1-.221-.425,3.117,3.117,0,0,1-.068-2.358,3.112,3.112,0,0,1,1.675-1.829,3.225,3.225,0,0,1,2.962.216,3.166,3.166,0,0,1,1.322,1.6c.041.094.076.2.11.281Z" transform="translate(31.822 28.55)" fill="#fff"/></g><g transform="translate(18.687 1.397)"><path d="M-7.827,0V6.135l.954.386-.542,1.264-1.053-.437a1.2,1.2,0,0,1-.519-.436,1.375,1.375,0,0,1-.2-.76V0Z" transform="translate(9.191)" fill="#fff"/></g><g transform="translate(21.056 3.568)"><path d="M-8.408-13.779a1.737,1.737,0,0,1,.6-1.309l-.979-1.091a3.2,3.2,0,0,0-1.082,2.4,3.193,3.193,0,0,0,1.08,2.4l.977-1.092a1.738,1.738,0,0,1-.592-1.308" transform="translate(9.872 16.179)" fill="#fff"/></g><g transform="translate(23.24 6.323)"><path d="M-5.848-7.961a1.754,1.754,0,0,1-.551-.09l-.467,1.39A3.205,3.205,0,0,0-5.849-6.5,3.207,3.207,0,0,0-2.707-9.055l-1.436-.293A1.74,1.74,0,0,1-5.848-7.961" transform="translate(6.867 9.348)" fill="#fff"/></g><g transform="translate(23.247 2.765)"><path d="M-5.836,0A3.2,3.2,0,0,0-6.852.164l.464,1.391a1.76,1.76,0,0,1,.552-.089,1.739,1.739,0,0,1,1.7,1.394L-2.7,2.567A3.205,3.205,0,0,0-5.836,0" transform="translate(6.852 0)" fill="#fff"/></g></g></g><g transform="translate(-49)"><g transform="translate(-880 2509)"><rect width="36" height="24" rx="4" fill="#00a0d9"/><path d="M67.059,71.215c-.41.4-1.559.515-1.442-.444.1-.8.964-.965,1.9-.85A2.364,2.364,0,0,1,67.059,71.215ZM65.765,68.11c-.039.22-.1.418-.148.628.469-.118,1.93-.478,2.07.148a1.1,1.1,0,0,1-.092.592c-1.321-.125-2.4.094-2.68,1.035a1.168,1.168,0,0,0,.425,1.423,1.768,1.768,0,0,0,2.052-.573,2.415,2.415,0,0,0-.055.591h.684a10.608,10.608,0,0,1,.2-1.775,7.007,7.007,0,0,0,.222-1.442C68.386,67.724,66.706,68.083,65.765,68.11Zm6.858,3.42c-.535.011-.8-.32-.813-.869-.021-.962.4-2.03,1.257-2.126a2.085,2.085,0,0,1,.98.148C73.778,69.763,73.875,71.5,72.623,71.53ZM74.4,66.447c-.068.6-.159,1.172-.277,1.719-1.95-.617-3.145.817-3.124,2.588a1.392,1.392,0,0,0,.277.924,1.8,1.8,0,0,0,1.959.166,1.38,1.38,0,0,0,.277-.277c.051-.065.133-.234.148-.185a4.14,4.14,0,0,0-.074.573H74.3a50.348,50.348,0,0,1,.887-5.508ZM54.046,71.234c-.425.45-1.471.443-1.553-.314a3.766,3.766,0,0,1,.148-1.017c.061-.345.106-.677.166-.98.419-.511,1.65-.573,1.775.277A2.82,2.82,0,0,1,54.046,71.234Zm.629-3.124a2.1,2.1,0,0,0-1.848.336c0,.013-.008.014-.019.015l.019-.015v0c.006-.123.049-.209.055-.333H52.2c-.285,1.9-.623,3.739-.98,5.564h.795c.115-.711.191-1.46.351-2.126.182.7,1.367.566,1.867.3C55.263,71.286,56.059,68.63,54.674,68.11Zm3.771,1.331H56.578a1.1,1.1,0,0,1,1.054-.924C58.2,68.495,58.614,68.727,58.445,69.441Zm-.758-1.4a2.075,2.075,0,0,0-1.4.573,3.211,3.211,0,0,0-.665,2.329c.143,1.281,1.738,1.235,3.013.924.022-.225.076-.417.111-.628a2.535,2.535,0,0,1-1.978.129c-.408-.258-.41-.911-.277-1.479.857-.027,1.748-.022,2.606,0a2.733,2.733,0,0,0,.074-1.238C58.986,68.122,58.343,67.986,57.687,68.036ZM50.7,68.11c-.022,0-.02.029-.019.055-.175,1.31-.412,2.558-.665,3.789h.795c.191-1.319.41-2.609.684-3.845Zm20.739.018a1.214,1.214,0,0,0-1.516.591c.065-.181.069-.424.129-.61h-.7q-.284,1.98-.684,3.845h.813a8.7,8.7,0,0,1,.185-1.386c.17-1.067.42-2.237,1.664-1.885C71.37,68.5,71.387,68.3,71.44,68.129Zm-8.928,2.921a1.935,1.935,0,0,1-.074-.739,2.585,2.585,0,0,1,.536-1.479,1.948,1.948,0,0,1,1.885-.111c.02-.22.064-.416.092-.628a3,3,0,0,0-2.625.5,3.157,3.157,0,0,0-.629,2.625c.286.936,1.568.987,2.606.629.046-.188.07-.4.111-.592C63.848,71.547,62.764,71.7,62.512,71.049Zm-.444-2.939a1.22,1.22,0,0,0-1.516.647c.058-.2.082-.435.129-.647h-.7c-.172,1.332-.425,2.582-.665,3.845h.795a15.113,15.113,0,0,1,.407-2.477,1.109,1.109,0,0,1,1.46-.795C61.986,68.472,62.047,68.31,62.068,68.11Zm-12.81-1.553c-.114.737-.241,1.459-.37,2.181-.823.009-1.664.041-2.458-.019.15-.706.258-1.455.407-2.163H45.95c-.318,1.8-.607,3.633-.961,5.4h.906c.142-.905.275-1.82.462-2.68a22.08,22.08,0,0,1,2.44.019c-.153.894-.338,1.757-.481,2.662h.906c.291-1.829.6-3.641.961-5.4Zm2.255.813c.158-.109.363-.606.129-.813a.44.44,0,0,0-.37-.055.447.447,0,0,0-.314.166c-.1.137-.192.549-.037.7s.491.069.592,0Z" transform="translate(-41.989 -57.977)" fill="#00a0d9"/></g><g transform="translate(-880 2509)"><g transform="translate(0 5.527)"><path d="M249.14,1546.394v-5.56h5.887l.632.823.652-.823h21.367v5.176a2.466,2.466,0,0,1-1.205.384H264.641l-.712-.876v.876H261.6v-1.5a1.957,1.957,0,0,1-1.008.209h-.794v1.287h-3.533l-.631-.841-.64.841Z" transform="translate(-242.266 -1533.55)" fill="#fff"/><path d="M55.5,1338.717l1.327-3.095h2.3l.753,1.734v-1.734H62.73l.448,1.253.435-1.253h12.81v.63a2.763,2.763,0,0,1,1.78-.63l4.157.015.74,1.711v-1.725h2.388l.657.983v-.983h2.41v5.56h-2.41l-.63-.986v.986H82.008l-.353-.876h-.943l-.347.876h-2.38a2.352,2.352,0,0,1-1.561-.617v.617H72.836l-.712-.876v.876H58.783l-.353-.876h-.94l-.35.876H55.5Z" transform="translate(-55.5 -1335.622)" fill="#fff"/><path d="M57.483,1354.929l-1.79,4.163h1.166l.33-.834h1.921l.329.834h1.191l-1.789-4.163Zm.662.969.585,1.457H57.559Z" transform="translate(-55.686 -1354.244)" fill="#00a0d9"/><path d="M198.223,1359.072v-4.163l1.656.006.963,2.684.94-2.69h1.643v4.163h-1.041v-3.067l-1.1,3.067h-.913l-1.106-3.067v3.067Z" transform="translate(-193.156 -1354.225)" fill="#00a0d9"/><path d="M364.861,1359.072v-4.163h3.4v.931h-2.344v.712h2.29v.876h-2.29v.74h2.344v.9Z" transform="translate(-353.879 -1354.225)" fill="#00a0d9"/><path d="M477.5,1354.929v4.163h1.041v-1.479h.438l1.248,1.479H481.5l-1.369-1.534a1.268,1.268,0,0,0,1.142-1.279,1.347,1.347,0,0,0-1.455-1.351Zm1.041.931h1.19a.478.478,0,0,1,.493.438.47.47,0,0,1-.478.438h-1.205Z" transform="translate(-462.516 -1354.244)" fill="#00a0d9"/><path d="M596.749,1359.072h-1.063v-4.163h1.063Z" transform="translate(-576.51 -1354.225)" fill="#00a0d9"/><path d="M641.905,1359.072h-.229a1.834,1.834,0,0,1-1.784-2.064,1.907,1.907,0,0,1,2.068-2.1h1.15v.986h-1.192a1,1,0,0,0-.971,1.123,1.019,1.019,0,0,0,1.123,1.145h.274Z" transform="translate(-619.146 -1354.225)" fill="#00a0d9"/><path d="M711.742,1354.929l-1.79,4.163h1.166l.33-.834h1.921l.329.834h1.191l-1.789-4.163Zm.662.969.585,1.457h-1.172Z" transform="translate(-686.719 -1354.244)" fill="#00a0d9"/><path d="M852.433,1359.072v-4.163h1.323l1.689,2.615v-2.615h1.041v4.163h-1.28l-1.732-2.684v2.684Z" transform="translate(-824.142 -1354.225)" fill="#00a0d9"/><path d="M269.2,1564.285v-4.163h3.4v.931H270.25v.712h2.29v.876h-2.29v.74h2.344v.9Z" transform="translate(-261.612 -1552.152)" fill="#00a0d9"/><path d="M737.947,1564.285v-4.163h3.4v.931H739v.712h2.279v.876H739v.74h2.344v.9Z" transform="translate(-713.72 -1552.152)" fill="#00a0d9"/><path d="M367.5,1564.284l1.653-2.056-1.693-2.107h1.311l1.008,1.3,1.012-1.3h1.26l-1.671,2.081,1.657,2.081h-1.311l-.979-1.282-.955,1.282Z" transform="translate(-356.39 -1552.152)" fill="#00a0d9"/><path d="M499.869,1560.141v4.163h1.068v-1.315h1.1a1.44,1.44,0,0,0,1.63-1.448,1.37,1.37,0,0,0-1.494-1.4Zm1.068.941h1.154a.47.47,0,0,1,.514.479.48.48,0,0,1-.517.479h-1.15Z" transform="translate(-484.094 -1552.171)" fill="#00a0d9"/><path d="M619.448,1560.122v4.163h1.041v-1.479h.438l1.248,1.479h1.272l-1.369-1.534a1.268,1.268,0,0,0,1.142-1.279,1.347,1.347,0,0,0-1.455-1.35Zm1.041.931h1.19a.478.478,0,0,1,.493.438.47.47,0,0,1-.478.438h-1.205Z" transform="translate(-599.428 -1552.152)" fill="#00a0d9"/><path d="M843.6,1564.284v-.9h2.083c.308,0,.442-.167.442-.349s-.133-.352-.442-.352h-.941a1.164,1.164,0,0,1-1.274-1.247c0-.667.417-1.311,1.633-1.311h2.027l-.438.937h-1.753c-.335,0-.438.176-.438.344a.363.363,0,0,0,.383.363h.986a1.142,1.142,0,0,1,1.308,1.195,1.248,1.248,0,0,1-1.357,1.325Z" transform="translate(-815.492 -1552.152)" fill="#00a0d9"/><path d="M951.194,1564.284v-.9h2.083c.308,0,.442-.167.442-.349s-.133-.352-.442-.352h-.941a1.164,1.164,0,0,1-1.274-1.247c0-.667.417-1.311,1.633-1.311h2.027l-.438.937H952.53c-.335,0-.438.176-.438.344a.363.363,0,0,0,.383.363h.986a1.142,1.142,0,0,1,1.308,1.195,1.248,1.248,0,0,1-1.357,1.325Z" transform="translate(-919.269 -1552.152)" fill="#00a0d9"/></g></g></g></g></svg>