<svg xmlns="http://www.w3.org/2000/svg" width="36" height="24" viewBox="0 0 36 24"><rect width="36" height="24" rx="4" fill="#b82126"/><path d="M67.059,71.215c-.41.4-1.559.515-1.442-.444.1-.8.964-.965,1.9-.85A2.364,2.364,0,0,1,67.059,71.215ZM65.765,68.11c-.039.22-.1.418-.148.628.469-.118,1.93-.478,2.07.148a1.1,1.1,0,0,1-.092.592c-1.321-.125-2.4.094-2.68,1.035a1.168,1.168,0,0,0,.425,1.423,1.768,1.768,0,0,0,2.052-.573,2.415,2.415,0,0,0-.055.591h.684a10.608,10.608,0,0,1,.2-1.775,7.007,7.007,0,0,0,.222-1.442C68.386,67.724,66.706,68.083,65.765,68.11Zm6.858,3.42c-.535.011-.8-.32-.813-.869-.021-.962.4-2.03,1.257-2.126a2.085,2.085,0,0,1,.98.148C73.778,69.763,73.875,71.5,72.623,71.53ZM74.4,66.447c-.068.6-.159,1.172-.277,1.719-1.95-.617-3.145.817-3.124,2.588a1.392,1.392,0,0,0,.277.924,1.8,1.8,0,0,0,1.959.166,1.38,1.38,0,0,0,.277-.277c.051-.065.133-.234.148-.185a4.14,4.14,0,0,0-.074.573H74.3a50.348,50.348,0,0,1,.887-5.508ZM54.046,71.234c-.425.45-1.471.443-1.553-.314a3.766,3.766,0,0,1,.148-1.017c.061-.345.106-.677.166-.98.419-.511,1.65-.573,1.775.277A2.82,2.82,0,0,1,54.046,71.234Zm.629-3.124a2.1,2.1,0,0,0-1.848.336c0,.013-.008.014-.019.015l.019-.015v0c.006-.123.049-.209.055-.333H52.2c-.285,1.9-.623,3.739-.98,5.564h.795c.115-.711.191-1.46.351-2.126.182.7,1.367.566,1.867.3C55.263,71.286,56.059,68.63,54.674,68.11Zm3.771,1.331H56.578a1.1,1.1,0,0,1,1.054-.924C58.2,68.495,58.614,68.727,58.445,69.441Zm-.758-1.4a2.075,2.075,0,0,0-1.4.573,3.211,3.211,0,0,0-.665,2.329c.143,1.281,1.738,1.235,3.013.924.022-.225.076-.417.111-.628a2.535,2.535,0,0,1-1.978.129c-.408-.258-.41-.911-.277-1.479.857-.027,1.748-.022,2.606,0a2.733,2.733,0,0,0,.074-1.238C58.986,68.122,58.343,67.986,57.687,68.036ZM50.7,68.11c-.022,0-.02.029-.019.055-.175,1.31-.412,2.558-.665,3.789h.795c.191-1.319.41-2.609.684-3.845Zm20.739.018a1.214,1.214,0,0,0-1.516.591c.065-.181.069-.424.129-.61h-.7q-.284,1.98-.684,3.845h.813a8.7,8.7,0,0,1,.185-1.386c.17-1.067.42-2.237,1.664-1.885C71.37,68.5,71.387,68.3,71.44,68.129Zm-8.928,2.921a1.935,1.935,0,0,1-.074-.739,2.585,2.585,0,0,1,.536-1.479,1.948,1.948,0,0,1,1.885-.111c.02-.22.064-.416.092-.628a3,3,0,0,0-2.625.5,3.157,3.157,0,0,0-.629,2.625c.286.936,1.568.987,2.606.629.046-.188.07-.4.111-.592C63.848,71.547,62.764,71.7,62.512,71.049Zm-.444-2.939a1.22,1.22,0,0,0-1.516.647c.058-.2.082-.435.129-.647h-.7c-.172,1.332-.425,2.582-.665,3.845h.795a15.113,15.113,0,0,1,.407-2.477,1.109,1.109,0,0,1,1.46-.795C61.986,68.472,62.047,68.31,62.068,68.11Zm-12.81-1.553c-.114.737-.241,1.459-.37,2.181-.823.009-1.664.041-2.458-.019.15-.706.258-1.455.407-2.163H45.95c-.318,1.8-.607,3.633-.961,5.4h.906c.142-.905.275-1.82.462-2.68a22.08,22.08,0,0,1,2.44.019c-.153.894-.338,1.757-.481,2.662h.906c.291-1.829.6-3.641.961-5.4Zm2.255.813c.158-.109.363-.606.129-.813a.44.44,0,0,0-.37-.055.447.447,0,0,0-.314.166c-.1.137-.192.549-.037.7s.491.069.592,0Z" transform="translate(-41.989 -57.977)" fill="#fff"/></svg>