<svg xmlns="http://www.w3.org/2000/svg" width="36" height="24" viewBox="0 0 36 24"><rect width="36" height="24" rx="4" fill="#fff"/><g transform="translate(5.592 2.967)"><path d="M24.393,94.691V93.424a.752.752,0,0,0-.794-.8.782.782,0,0,0-.71.359.742.742,0,0,0-.668-.359.668.668,0,0,0-.592.3v-.249H21.19v2.02h.444V93.58a.473.473,0,0,1,.494-.537c.292,0,.439.19.439.532V94.7h.444V93.58a.475.475,0,0,1,.494-.537c.3,0,.444.19.444.532V94.7Zm6.565-2.02h-.723v-.613h-.444v.613h-.4v.4h.41V94c0,.469.182.748.7.748a1.031,1.031,0,0,0,.549-.156l-.127-.376a.811.811,0,0,1-.389.114c-.211,0-.292-.135-.292-.338v-.921h.718Zm3.748-.051a.6.6,0,0,0-.532.3v-.245h-.435v2.02h.439V93.559c0-.334.144-.52.423-.52a.716.716,0,0,1,.275.051l.135-.423a.94.94,0,0,0-.313-.055Zm-5.667.211a1.511,1.511,0,0,0-.824-.211c-.511,0-.845.245-.845.647,0,.33.245.532.7.6l.211.03c.241.034.355.1.355.211,0,.156-.161.245-.461.245a1.075,1.075,0,0,1-.672-.211l-.211.342a1.458,1.458,0,0,0,.875.262c.583,0,.921-.275.921-.659s-.266-.541-.706-.6l-.211-.03c-.19-.025-.342-.063-.342-.2s.144-.237.385-.237a1.3,1.3,0,0,1,.634.173Zm11.771-.211a.6.6,0,0,0-.532.3v-.245h-.435v2.02h.439V93.559c0-.334.144-.52.423-.52a.716.716,0,0,1,.275.051l.135-.423a.94.94,0,0,0-.313-.055Zm-5.663,1.056a1.021,1.021,0,0,0,1.078,1.056,1.057,1.057,0,0,0,.727-.241l-.211-.355a.887.887,0,0,1-.528.182.649.649,0,0,1,0-1.293.887.887,0,0,1,.528.182l.211-.355a1.056,1.056,0,0,0-.727-.241,1.021,1.021,0,0,0-1.078,1.056Zm4.116,0V92.671h-.439v.245a.767.767,0,0,0-.634-.3,1.056,1.056,0,0,0,0,2.113.767.767,0,0,0,.634-.3v.245h.439Zm-1.635,0a.606.606,0,1,1,.165.457A.611.611,0,0,1,37.628,93.677Zm-5.3-1.056a1.057,1.057,0,0,0,.03,2.113,1.228,1.228,0,0,0,.839-.275l-.211-.325a.961.961,0,0,1-.587.211.56.56,0,0,1-.6-.494h1.5v-.169a.96.96,0,0,0-.959-1.056Zm0,.393a.5.5,0,0,1,.511.49H31.78a.52.52,0,0,1,.537-.49Zm11.01.668V91.86h-.423v1.056a.767.767,0,0,0-.634-.3,1.056,1.056,0,0,0,0,2.113.767.767,0,0,0,.634-.3v.245h.423Zm-1.625,0a.606.606,0,1,1,.165.457A.611.611,0,0,1,41.711,93.681Zm-14.839,0v-1.01h-.439v.245a.767.767,0,0,0-.634-.3,1.056,1.056,0,1,0,0,2.113.767.767,0,0,0,.634-.3v.245h.439Zm-1.635,0a.6.6,0,1,1,.162.459.611.611,0,0,1-.162-.459Z" transform="translate(-19.915 -76.652)" fill="#231f20"/><rect width="6.656" height="10.961" transform="translate(8.979 1.627)" fill="#ff5f00"/><path d="M24.557,22.262a6.935,6.935,0,0,1,2.905-5.588,8,8,0,0,0-10.288.766,6.768,6.768,0,0,0,0,9.643,8,8,0,0,0,10.288.766A6.935,6.935,0,0,1,24.557,22.262Z" transform="translate(-15.155 -15.154)" fill="#eb001b"/><path d="M85.708,22.259a7.081,7.081,0,0,1-4.282,6.392,8.047,8.047,0,0,1-8.025-.805,6.824,6.824,0,0,0,0-11.175,8.047,8.047,0,0,1,8.025-.805,7.081,7.081,0,0,1,4.282,6.392Z" transform="translate(-61.093 -15.151)" fill="#f79e1b"/></g></svg>