<svg xmlns="http://www.w3.org/2000/svg" width="36" height="24" viewBox="0 0 36 24"><rect width="36" height="24" rx="4" fill="#1352b8"/><g transform="translate(5 7.612)"><path d="M55.291,60.21H53.2l1.306-8.023H56.6Z" transform="translate(-44.194 -52.043)" fill="#f7f9fa"/><path d="M18.478,52.187l-1.992,5.518-.235-1.188h0l-.7-3.608a.894.894,0,0,0-.991-.723H11.265l-.038.136a7.8,7.8,0,0,1,2.185.917l1.815,6.97H17.4l3.323-8.023Z" transform="translate(-11.227 -52.043)" fill="#f7f9fa"/><path d="M101.394,60.21h1.918l-1.672-8.023H99.96a.96.96,0,0,0-.964.6L95.881,60.21h2.177l.436-1.192h2.655Zm-2.3-2.838,1.1-3,.617,3Z" transform="translate(-77.713 -52.043)" fill="#f7f9fa"/><path d="M74.879,53.591l.3-1.723a6.029,6.029,0,0,0-1.879-.35c-1.037,0-3.5.453-3.5,2.656,0,2.073,2.889,2.1,2.889,3.187s-2.591.894-3.446.207l-.311,1.8a5.851,5.851,0,0,0,2.358.453c1.425,0,3.576-.738,3.576-2.747,0-2.086-2.915-2.28-2.915-3.187S73.985,53.1,74.879,53.591Z" transform="translate(-56.548 -51.518)" fill="#f7f9fa"/><path d="M16.251,56.517l-.7-3.608a.894.894,0,0,0-.991-.723H11.265l-.038.136a8.1,8.1,0,0,1,3.1,1.557A6.258,6.258,0,0,1,16.251,56.517Z" transform="translate(-11.227 -52.043)" fill="#fc9220"/></g></svg>