<svg xmlns="http://www.w3.org/2000/svg" width="30.94" height="25.48" viewBox="0 0 30.94 25.48">
  <g id="Group_56" data-name="Group 56" transform="translate(3147 -174)">
    <path id="Union_4" data-name="Union 4" d="M4.11,24.4V5.5a1.084,1.084,0,1,1,2.168,0V24.4a1.084,1.084,0,1,1-2.168,0Zm4.11-1.13V2.934a1.084,1.084,0,1,1,2.168,0V23.266a1.084,1.084,0,0,1-2.168,0ZM0,22.174v-11.6a1.084,1.084,0,0,1,2.168,0v11.6a1.084,1.084,0,1,1-2.168,0Zm12.331-1.991V1.392a1.084,1.084,0,1,1,2.168,0V20.183a1.084,1.084,0,1,1-2.168,0Zm8.221-1.233V2.009a1.084,1.084,0,1,1,2.168,0V18.95a1.084,1.084,0,1,1-2.168,0Zm-4.11,0V1.085a1.084,1.084,0,1,1,2.168,0V18.95a1.084,1.084,0,1,1-2.168,0Zm8.221-.719V4.27a1.084,1.084,0,1,1,2.168,0V18.231a1.084,1.084,0,1,1-2.168,0Zm4.11-2.466V9.817a1.084,1.084,0,1,1,2.168,0v5.948a1.084,1.084,0,1,1-2.168,0Z" transform="translate(-3147 174)" fill="#fff"/>
  </g>
</svg>
