<svg xmlns="http://www.w3.org/2000/svg" width="191.558" height="38.436" viewBox="0 0 191.558 38.436">
  <g id="Group_54" data-name="Group 54" transform="translate(-860 -494)">
    <g id="Group_52" data-name="Group 52" transform="translate(0 -53)">
      <path id="Path_33" data-name="Path 33" d="M1.636,0A1.636,1.636,0,0,1,3.271,1.636v17.5a1.636,1.636,0,0,1-3.271,0V1.636A1.636,1.636,0,0,1,1.636,0Z" transform="translate(860 561.317)" fill="#fff"/>
      <rect id="Rectangle_130" data-name="Rectangle 130" width="3.271" height="31.772" rx="1.636" transform="translate(866.2 553.664)" fill="#fff"/>
      <rect id="Rectangle_131" data-name="Rectangle 131" width="3.271" height="33.942" rx="1.636" transform="translate(872.4 549.79)" fill="#fff"/>
      <rect id="Rectangle_132" data-name="Rectangle 132" width="3.271" height="31.617" rx="1.636" transform="translate(878.601 547.465)" fill="#fff"/>
      <rect id="Rectangle_133" data-name="Rectangle 133" width="3.271" height="30.222" rx="1.636" transform="translate(884.801 547)" fill="#fff"/>
      <rect id="Rectangle_134" data-name="Rectangle 134" width="3.271" height="28.827" rx="1.636" transform="translate(891.001 548.395)" fill="#fff"/>
      <rect id="Rectangle_135" data-name="Rectangle 135" width="3.271" height="24.333" rx="1.636" transform="translate(897.202 551.805)" fill="#fff"/>
      <rect id="Rectangle_136" data-name="Rectangle 136" width="3.271" height="12.244" rx="1.636" transform="translate(903.402 560.174)" fill="#fff"/>
    </g>
    <path id="Path_34" data-name="Path 34" d="M-52.936-7.54c0-3.744-2.262-5.772-5.9-5.772a7.711,7.711,0,0,0-5.876,2.6l2.08,2.834c1.248-1.118,2.08-1.586,3.25-1.586,1.352,0,1.976.65,1.976,1.664v.208h-2.73c-3.146,0-5.1,1.456-5.1,3.874,0,2.184,1.638,4.03,4.472,4.03a5.234,5.234,0,0,0,3.744-1.378V0h4.082Zm-4.472,2.782a1.836,1.836,0,0,1-1.976,1.9c-.832,0-1.326-.39-1.326-1.014s.442-.988,1.2-.988h2.106Zm7.176-1.3a6.1,6.1,0,0,0,6.37,6.37,6.081,6.081,0,0,0,6.344-6.37V-13H-41.99v7.306a1.824,1.824,0,0,1-1.872,1.9,1.815,1.815,0,0,1-1.9-1.9V-13h-4.472ZM-25.792-19.5v7.384a4.628,4.628,0,0,0-3.328-1.2c-3.588,0-6.24,2.886-6.24,6.838S-32.76.312-29.12.312A4.278,4.278,0,0,0-25.4-1.352V0h4.082V-19.5Zm.078,13.026a2.489,2.489,0,0,1-2.522,2.73A2.517,2.517,0,0,1-30.784-6.5a2.545,2.545,0,0,1,2.548-2.756A2.534,2.534,0,0,1-25.714-6.474ZM-18.408,0h4.472V-13h-4.472Zm-.52-17.6a2.643,2.643,0,0,0,2.73,2.626A2.682,2.682,0,0,0-13.442-17.6,2.687,2.687,0,0,0-16.2-20.254,2.664,2.664,0,0,0-18.928-17.6Zm7.254,11.1A6.9,6.9,0,0,0-4.6.312,6.918,6.918,0,0,0,2.5-6.5a6.918,6.918,0,0,0-7.1-6.812A6.9,6.9,0,0,0-11.674-6.5Zm9.594,0a2.519,2.519,0,0,1-2.5,2.7A2.481,2.481,0,0,1-7.1-6.5,2.509,2.509,0,0,1-4.576-9.2,2.534,2.534,0,0,1-2.08-6.5ZM25.454-8.008c0-3.224-1.924-5.3-5.018-5.3a6.013,6.013,0,0,0-4.264,1.664,4.574,4.574,0,0,0-3.77-1.664A5,5,0,0,0,8.84-11.986V-13H4.758V0H9.23V-7.358a1.73,1.73,0,0,1,1.794-1.924A1.743,1.743,0,0,1,12.87-7.358V0h4.472V-7.358a1.73,1.73,0,0,1,1.794-1.924,1.743,1.743,0,0,1,1.846,1.924V0h4.472ZM28.262,0h4.472V-13H28.262Zm-.52-17.6a2.643,2.643,0,0,0,2.73,2.626A2.682,2.682,0,0,0,33.228-17.6a2.687,2.687,0,0,0-2.756-2.652A2.664,2.664,0,0,0,27.742-17.6ZM48.36-8.008c0-3.224-1.95-5.3-4.966-5.3a5.13,5.13,0,0,0-3.666,1.378V-13H35.646V0h4.472V-7.358A1.8,1.8,0,0,1,41.99-9.282a1.822,1.822,0,0,1,1.9,1.924V0H48.36ZM60.086-19.5v7.384a4.628,4.628,0,0,0-3.328-1.2c-3.588,0-6.24,2.886-6.24,6.838s2.6,6.786,6.24,6.786a4.278,4.278,0,0,0,3.718-1.664V0h4.082V-19.5Zm.078,13.026a2.489,2.489,0,0,1-2.522,2.73A2.517,2.517,0,0,1,55.094-6.5a2.545,2.545,0,0,1,2.548-2.756A2.534,2.534,0,0,1,60.164-6.474Z" transform="translate(987 519)" fill="#fff"/>
  </g>
</svg>
